<svg xmlns="http://www.w3.org/2000/svg" width="44" height="44" viewBox="0 0 44 44">
    <g fill="none" fill-rule="evenodd">
        <path fill="#8300D8" d="M5.062 33.27c-.857.847-1.716 1.692-2.57 2.541-.904.898-1.759.793-2.424-.302-.012-.02-.045-.026-.068-.039v-.842c.882-1.167 2.02-2.089 3.013-3.148.2-.214.404-.426.606-.638.251-.241.505-.48.755-.723.612-.595 1.426-.619 1.979-.056.54.55.515 1.352-.064 1.948-.408.421-.818.84-1.227 1.26M7.667 43.137c-.03-.115-.146-.116-.225-.164-.809-.483-.952-1.466-.292-2.146.898-.925 1.81-1.835 2.716-2.752.43-.419.857-.84 1.29-1.255.578-.554 1.376-.567 1.918-.036.553.542.542 1.356-.026 1.949l-.752.785c-.957.947-1.919 1.888-2.868 2.842-.303.305-.61.594-1.003.777h-.758zM6.33 34.872c1.156-1.145 2.307-2.296 3.469-3.434.793-.776 2.031-.452 2.293.597.131.524-.043.961-.42 1.336-1.045 1.04-2.086 2.083-3.127 3.127-.098.098-.187.206-.28.309l-1.828 1.798c-.631.622-1.453.654-2.012.078-.547-.564-.504-1.363.107-1.983l1.799-1.828"/>
        <path fill="#020202" d="M3.984 40.434c.003.81-.462 1.287-1.265 1.298-.827.01-1.322-.472-1.321-1.287 0-.824.484-1.302 1.31-1.299.801.004 1.273.48 1.276 1.288M31.094 13.466c-.013-.642-.85-1.444-1.482-1.42-.625.023-1.41.844-1.397 1.46.013.65.84 1.441 1.48 1.418.63-.023 1.41-.837 1.399-1.458m-1.452 3.971c-2.354-.006-3.944-1.614-3.939-3.983.005-2.32 1.635-3.931 3.962-3.92 2.352.012 3.956 1.635 3.942 3.986-.015 2.33-1.627 3.924-3.965 3.917"/>
        <path fill="#020202" d="M10.943 26.416l5.773 5.795c.213-1.076.427-2.172.65-3.268.037-.18-.046-.283-.162-.398-.876-.87-1.748-1.744-2.62-2.618-.1-.099-.185-.198-.357-.163-1.109.225-2.219.442-3.284.652m21.806-1.915c-.058.025-.104.032-.13.059-1.649 1.646-3.293 3.296-4.947 4.937-.178.177-.06.254.05.364 1.478 1.478 2.96 2.954 4.432 4.439.155.156.242.161.397 0 .536-.555 1.051-1.14 1.645-1.627.574-.472.67-.925.444-1.642-.68-2.157-1.266-4.344-1.891-6.53M18.678 10.399c-2.442-.698-4.824-1.375-7.204-2.063-.211-.061-.348-.05-.512.12a81.17 81.17 0 0 1-2.084 2.085c-.203.196-.188.299.005.49a381.42 381.42 0 0 1 4.316 4.319c.25.254.365.196.578-.019 1.53-1.546 3.073-3.08 4.611-4.62.087-.087.168-.18.29-.312M33.33 3.176c.174.138.27.2.347.278 1.559 1.559 3.113 3.122 4.673 4.68.351.35.544.751.456 1.247-.093.524-.397.893-.908 1.063-.547.182-1.02.032-1.421-.37-1.875-1.878-3.755-3.751-5.62-5.64-.219-.223-.376-.234-.643-.1A22.31 22.31 0 0 0 24.5 8.445c-3.876 3.828-7.717 7.692-11.58 11.534-.204.203-.177.302.01.489 3.242 3.231 6.48 6.467 9.709 9.711.216.218.321.237.55.007 3.616-3.633 7.245-7.251 10.865-10.88 1.933-1.937 3.633-4.051 4.813-6.542 1.387-2.928 1.956-5.978 1.317-9.2-.066-.337-.192-.532-.56-.608-2.073-.427-4.122-.315-6.294.219m9.807 1.542v3.033c-.115.03-.082.13-.092.205-.108.804-.256 1.6-.457 2.388-.424 1.66-1.114 3.214-1.895 4.731-.325.522-.642 1.05-.976 1.566-1.281 1.978-2.847 3.718-4.54 5.347-.21.202-.24.368-.158.651.888 3.052 1.75 6.111 2.632 9.164.187.648.051 1.167-.432 1.641-1.262 1.239-2.505 2.498-3.756 3.748-.752.752-1.468.75-2.222-.003-1.787-1.786-3.578-3.568-5.354-5.365-.226-.23-.343-.222-.553.006-.428.464-.887.9-1.334 1.345-.716.713-1.45.715-2.162.002-.692-.695-1.378-1.396-2.06-2.087-.138.09-.129.195-.147.29-.254 1.277-.509 2.555-.762 3.833-.11.553-.403.948-.956 1.12-.539.167-.995.013-1.382-.374a11861.55 11861.55 0 0 1-9.38-9.381c-.375-.376-.509-.831-.349-1.351.164-.534.541-.839 1.077-.95.59-.124 1.182-.234 1.772-.352.792-.158 1.584-.318 2.458-.494-.777-.771-1.498-1.477-2.209-2.193-.633-.638-.628-1.398.006-2.041.463-.47.92-.947 1.404-1.395.23-.212.23-.326.003-.551-1.817-1.796-3.62-3.607-5.424-5.415-.67-.672-.664-1.51.01-2.186C7.15 8.398 8.398 7.145 9.654 5.9c.447-.443.978-.616 1.608-.435 3.094.89 6.191 1.77 9.283 2.669.255.074.4.036.578-.147 1.02-1.045 2.07-2.057 3.203-2.982 1.176-.96 2.445-1.78 3.74-2.564.089-.038.181-.07.266-.116A20.182 20.182 0 0 1 33.937.283c.483-.099.99-.072 1.45-.283h2.948c.034.116.132.074.207.081.977.092 1.93.298 2.862.603.53.174.889.512 1.046 1.05.124.429.234.861.357 1.29.158.555.14 1.145.33 1.694"/>
    </g>
</svg>
