<svg xmlns="http://www.w3.org/2000/svg" xmlns:xlink="http://www.w3.org/1999/xlink" width="44" height="42" viewBox="0 0 44 42">
    <defs>
        <path id="a" d="M0 .08h44v34.38H0z"/>
        <path id="c" d="M.086.072h16.501v5.52H.086z"/>
    </defs>
    <g fill="none" fill-rule="evenodd">
        <g transform="translate(0 6.89)">
            <mask id="b" fill="#fff">
                <use xlink:href="#a"/>
            </mask>
            <path fill="#010101" d="M19.25 15.422c0 .858-.006 1.717.002 2.575.01.898.428 1.324 1.313 1.332.959.009 1.917.01 2.876 0 .866-.009 1.3-.435 1.305-1.296.01-1.76-.002-3.52.01-5.28.001-.252-.08-.302-.313-.3-1.631.01-3.263.01-4.894 0-.245-.003-.308.067-.304.308.014.887.005 1.774.006 2.66m2.737-5.714c6.3 0 12.6-.002 18.901.008.309 0 .372-.085.368-.378-.018-1.232-.006-2.463-.01-3.694-.003-1.854-.947-2.808-2.802-2.809-10.983-.003-21.965-.003-32.948 0-1.772.001-2.737.97-2.746 2.738-.006 1.189 0 2.377 0 3.566 0 .57 0 .57.55.57h18.687m-.033 22h8.162c2.363 0 4.726.009 7.09-.003 1.582-.008 2.545-.891 2.662-2.385.02-.262-.016-.38-.325-.37-.787.023-1.576.013-2.363.006-.83-.007-1.44-.606-1.43-1.39.008-.766.612-1.347 1.42-1.357.573-.007 1.146-.001 1.719-.001.994 0 .982 0 .993-1.001.003-.295-.064-.387-.373-.382-1.231.019-2.463.012-3.694.006-.832-.003-1.444-.596-1.44-1.38.003-.784.612-1.363 1.452-1.367 1.003-.005 2.005-.002 3.008-.001 1.075 0 1.066.001 1.045-1.074-.004-.248-.08-.31-.316-.306-.787.013-1.575.009-2.363.003-.838-.005-1.449-.586-1.451-1.369-.002-.784.607-1.37 1.442-1.378.773-.006 1.547-.018 2.32.007.313.01.371-.095.369-.385-.015-1.575-.016-3.15 0-4.726.003-.308-.056-.407-.39-.406-3.867.014-7.734.013-11.6 0-.321 0-.404.077-.4.4.017 1.66.01 3.322.007 4.983-.003 1.94-1.528 3.81-3.443 4.166-1.09.204-2.2.072-3.3.079-2.27.014-4.252-1.975-4.255-4.242-.003-1.675-.003-3.35.002-5.026.001-.223 0-.36-.304-.359-3.924.012-7.848.01-11.772.002-.247 0-.308.075-.307.313.01 1.619.013 3.237-.003 4.855-.003.3.103.349.366.343a75.197 75.197 0 0 1 2.363-.003c.804.01 1.402.603 1.404 1.373.001.765-.605 1.362-1.404 1.373-.573.008-1.146.002-1.719.002-1.018-.001-1.008-.002-1.009 1.025 0 .277.07.36.354.356 1.203-.016 2.406-.008 3.609-.006.916.002 1.54.554 1.544 1.364.005.828-.623 1.385-1.566 1.386H5.181c-1.107-.001-1.098-.001-1.063 1.1.007.238.087.282.3.279.787-.01 1.575-.007 2.362-.004.844.004 1.458.572 1.47 1.352.012.802-.604 1.392-1.467 1.397-.788.004-1.576.001-2.363 0-.162 0-.314-.026-.296.23.062.926.414 1.974 1.652 2.362.4.126.81.16 1.228.16 4.983-.002 9.967-.001 14.95-.001M0 11.512V4.723c.149-.117.131-.299.173-.455C.805 1.883 3.093.084 5.53.083c10.95-.004 21.9-.004 32.85 0 2.492 0 4.732 1.705 5.425 4.1.06.21.053.441.194.626v6.703c-.263.388-.513.814-1.023.89-.317.047-.357.185-.357.466.008 5.369.011 10.738.003 16.107-.005 2.895-2.572 5.478-5.461 5.48-10.094.008-20.187.009-30.281 0-2.954-.003-5.499-2.573-5.505-5.524-.006-2.59 0-5.182 0-7.774-.001-2.777 0-5.555-.008-8.333 0-.12.112-.337-.095-.358-.627-.062-.966-.48-1.273-.954" mask="url(#b)"/>
        </g>
        <path fill="#A924F6" d="M21.955 38.597c-4.984 0-9.968-.001-14.951.001-.418 0-.827-.034-1.229-.16-1.237-.388-1.589-1.436-1.651-2.363-.018-.255.134-.23.296-.23.787.002 1.575.005 2.363 0 .863-.004 1.479-.594 1.467-1.396-.012-.78-.626-1.348-1.47-1.352-.787-.003-1.575-.007-2.362.004-.213.003-.293-.04-.3-.278-.035-1.102-.044-1.102 1.063-1.102.96 0 1.919.002 2.878.001.943 0 1.57-.558 1.566-1.386-.005-.81-.628-1.362-1.544-1.364-1.203-.002-2.406-.01-3.609.006-.283.004-.354-.079-.354-.356.001-1.027-.01-1.026 1.01-1.025.572 0 1.145.006 1.718-.002.8-.01 1.405-.608 1.404-1.373-.002-.77-.6-1.363-1.404-1.373a75.46 75.46 0 0 0-2.363.003c-.263.006-.369-.043-.366-.343.016-1.618.013-3.236.003-4.854-.001-.239.06-.314.307-.313 3.924.007 7.848.009 11.772-.003.305 0 .305.136.304.36-.005 1.675-.005 3.35-.002 5.025.003 2.267 1.984 4.256 4.255 4.242 1.1-.007 2.21.125 3.3-.078 1.915-.358 3.44-2.227 3.443-4.167.003-1.661.01-3.323-.008-4.984-.003-.322.08-.4.4-.398 3.867.012 7.734.013 11.6 0 .335-.002.394.097.391.405-.016 1.575-.015 3.15 0 4.726.002.29-.056.394-.37.385-.772-.025-1.546-.013-2.319-.006-.835.006-1.444.593-1.442 1.378.002.782.613 1.363 1.451 1.369.788.005 1.576.01 2.363-.004.236-.004.312.058.316.306.021 1.075.03 1.074-1.045 1.074-1.003-.001-2.005-.004-3.008.001-.84.004-1.45.583-1.453 1.367-.003.784.61 1.377 1.44 1.38 1.232.006 2.464.013 3.695-.006.309-.005.376.087.373.382-.011 1.001.001 1.001-.993 1-.573 0-1.146-.005-1.719.002-.808.01-1.412.591-1.42 1.357-.01.785.6 1.383 1.43 1.39.787.007 1.576.018 2.363-.006.309-.01.345.108.325.37-.117 1.494-1.08 2.377-2.663 2.385-2.363.012-4.726.003-7.089.003h-8.162"/>
        <g transform="translate(13.664 .014)">
            <mask id="d" fill="#fff">
                <use xlink:href="#c"/>
            </mask>
            <path fill="#010101" d="M8.585.082c.985.057 2.19-.103 3.385.084 2.37.372 4.452 2.663 4.614 5.047.02.302-.05.388-.357.377-.7-.024-1.403-.014-2.104-.003-.207.003-.282-.034-.3-.27-.122-1.612-1.026-2.465-2.644-2.479a340.874 340.874 0 0 0-5.71-.001c-1.583.013-2.5.878-2.619 2.46-.019.257-.106.294-.328.29A39.454 39.454 0 0 0 .42 5.59c-.3.011-.346-.09-.33-.36C.245 2.554 2.748.138 5.45.086 6.424.066 7.397.082 8.585.082" mask="url(#d)"/>
        </g>
        <path fill="#010101" d="M20.625 22.746c0-.358-.008-.717.002-1.074.02-.773.617-1.365 1.368-1.369a1.374 1.374 0 0 1 1.378 1.36c.014.744.012 1.489 0 2.233a1.374 1.374 0 0 1-1.369 1.369 1.379 1.379 0 0 1-1.377-1.36c-.01-.386-.002-.773-.002-1.16"/>
    </g>
</svg>
