<svg xmlns="http://www.w3.org/2000/svg" width="44" height="45" viewBox="0 0 44 45">
    <path fill="#A924F6" fill-rule="evenodd" d="M38.022.111c3.371.001 5.92 2.55 5.926 5.937.008 5.327.002 10.654.002 15.98 0 5.382.01 10.763-.004 16.143-.007 2.659-1.643 4.893-4.11 5.613-.581.17-1.206.263-1.811.264-10.726.015-21.451.019-32.177.005-3.31-.004-5.844-2.586-5.845-5.906C0 27.457 0 16.768.001 6.08.001 2.662 2.543.11 5.954.11 16.644.107 27.333.108 38.022.111zm-.178 2.308c-10.617.054-21.235.022-31.852.026-2.228.001-3.654 1.432-3.655 3.663-.004 10.635-.004 21.271 0 31.907.002 2.3 1.42 3.71 3.717 3.71 10.635.002 21.271.001 31.906-.002 2.222 0 3.653-1.435 3.655-3.661.003-5.327 0-10.654 0-15.98h.003c0-5.273-.053-10.547.024-15.819.034-2.32-1.735-3.854-3.798-3.844zm-5.847 8.09c1.171.014 2.343.006 3.622.006l-5.552 23.139c-1.087 0-2.132.017-3.176-.02-.141-.006-.348-.263-.396-.44-.761-2.782-1.501-5.57-2.245-8.358-.735-2.75-1.468-5.502-2.314-8.278-.056.171-.12.34-.167.513-1.42 5.332-2.843 10.662-4.248 15.998-.115.435-.275.62-.757.598-.935-.043-1.874-.012-2.879-.012l-5.55-23.137c1.283 0 2.489-.01 3.694.018.109.002.275.245.307.398.514 2.491 1.01 4.985 1.51 7.48l1.768 8.86c.024.123.063.243.136.52l4.61-17.279c1.004 0 1.977-.018 2.948.02.14.006.346.263.394.439.7 2.556 1.379 5.118 2.062 7.679l2.273 8.519c.042.155.09.308.219.467.254-1.26.51-2.52.763-3.78.862-4.298 1.723-8.595 2.58-12.893.048-.236.052-.46.398-.456z"/>
</svg>
