<svg xmlns="http://www.w3.org/2000/svg" width="44" height="45" viewBox="0 0 44 45">
    <path fill="#A924F6" fill-rule="evenodd" d="M37.993.11c3.384 0 5.95 2.532 5.953 5.909.009 10.671.01 21.343.001 32.014-.003 3.536-2.503 6.017-6.055 6.024-5.31.01-10.618.002-15.926.002-5.345-.001-10.69.004-16.035-.003C3.064 44.052.743 42.21.145 39.464a6.63 6.63 0 0 1-.138-1.396C0 27.414 0 16.76 0 6.108c0-3.45 2.537-5.999 5.978-6 10.672 0 21.343 0 32.015.002zM6 2.445c-2.232 0-3.663 1.426-3.664 3.654-.004 10.653-.003 21.307.002 31.96 0 2.249 1.439 3.665 3.707 3.666 10.635.001 21.27 0 31.906-.002 2.227-.001 3.662-1.432 3.663-3.653.004-5.327.001-10.654.001-15.98h.003c0-5.291.001-10.582-.004-15.873 0-.376-.009-.764-.096-1.127-.391-1.63-1.736-2.643-3.503-2.644C27.344 2.442 16.672 2.441 6 2.445zm14.591 5.542c1.195 0 1.9.422 2.246 1.488.22.677.295 1.4.435 2.102-.126 1.64-.503 3.196-.92 4.75-.093.351-.098.815.056 1.127.646 1.304 1.324 2.598 2.077 3.844.59.979 1.441 1.732 2.366 2.424.771.576 1.551.745 2.475.593 1.62-.266 3.244-.22 4.838.169.532.13 1.044.387 1.53.653.773.424 1.024 1.705.58 2.526-.582 1.074-1.478 1.322-2.511 1.344-2.212.046-4.342-.4-6.377-1.26-.529-.223-1.023-.357-1.605-.25-2.25.417-4.509.784-6.757 1.207-.615.116-1.216.337-1.8.568-.208.082-.377.318-.513.519-.945 1.385-1.82 2.822-2.832 4.154-.582.764-1.328 1.433-2.1 2.01-.48.358-1.131.532-1.733.667-.857.192-1.532-.386-2.048-.893-.453-.445-.488-1.214-.209-1.886.44-1.055 1.157-1.905 1.971-2.686 1.163-1.113 2.58-1.838 3.953-2.634a1.76 1.76 0 0 0 .602-.576c1.893-3.109 3.428-6.38 4.46-9.88.123-.42.153-.78.009-1.197-.553-1.596-.977-3.223-.707-4.932.132-.833.305-1.67.562-2.473.328-1.023 1-1.478 1.952-1.478zM13.3 30.327c-1.339.515-3.597 2.948-3.98 4.261 2.149-.715 3.035-2.516 3.98-4.26zm7.343-10.501l-3.594 7.767 7.544-2.12c-.664-.836-1.456-1.743-2.142-2.723-.68-.973-1.255-2.02-1.808-2.924zm9.231 6.112c1.575.75 3.195 1.32 5.018 1.224-.476-1.026-3.198-1.71-5.018-1.224zM20.744 8.95c-.815.543-.987 3.412-.329 4.991.37-1.629.822-3.253.33-4.99z"/>
</svg>
