<svg xmlns="http://www.w3.org/2000/svg" width="20" height="20" viewBox="0 0 20 20">
    <path fill="#8300D8" fill-rule="evenodd" d="M14.54 18.797c-.813-.467-1.58-.907-2.345-1.348-.42-.24-.849-.464-1.252-.729-.267-.174-.433-.159-.66.081-.908.959-1.84 1.894-2.763 2.837-.087.09-.182.173-.344.326v-.503c0-1.255.009-2.51-.004-3.764a1.333 1.333 0 0 1 .255-.832c1.679-2.38 3.345-4.769 5.014-7.156a.795.795 0 0 0 .162-.38c-.105.076-.214.148-.315.23-2.303 1.846-4.608 3.692-6.905 5.547-.224.181-.383.208-.644.053C3.267 12.29 1.78 11.442.3 10.586c-.086-.05-.166-.11-.301-.198L19.979 0l-5.44 18.797"/>
</svg>
