<svg xmlns="http://www.w3.org/2000/svg" width="44" height="44" viewBox="0 0 44 44">
    <path fill="#A924F6" fill-rule="evenodd" d="M37.996.002c3.383 0 5.948 2.535 5.95 5.912.009 10.671.01 21.343.001 32.014-.003 3.512-2.5 6.011-6.005 6.02-5.326.012-10.653.003-15.98.002-5.344 0-10.69.005-16.034-.003C3.063 43.943.741 42.1.144 39.353a6.646 6.646 0 0 1-.137-1.397C0 27.303 0 16.65 0 5.996 0 2.548 2.539 0 5.981 0c10.672 0 21.343 0 32.015.002zM5.999 2.338c-.34 0-.69.015-1.019.095-1.629.396-2.64 1.733-2.643 3.504-.007 5.327-.003 10.654-.001 15.98 0 5.345-.004 10.69.002 16.035.002 2.23 1.432 3.663 3.653 3.664 10.672.003 21.344.002 32.015-.002 2.152 0 3.607-1.452 3.608-3.599.003-10.672.005-21.343.002-32.015 0-2.225-1.43-3.66-3.656-3.662-10.653-.005-21.307-.004-31.96 0zm21.633 8.057c1.31.028 2.622.01 4.028.01-.144.246-.234.413-.336.572-2.236 3.496-4.465 6.995-6.72 10.48-.256.396-.238.663.011 1.048 2.223 3.44 4.424 6.894 6.631 10.343.125.196.246.393.406.648-.194.02-.327.048-.46.048l-2.42-.002c-.403.001-.806.005-1.209.013-.379.008-.576-.125-.76-.446-1.459-2.552-2.937-5.094-4.41-7.638-.117-.202-.24-.4-.41-.683-.128.203-.232.355-.324.513-1.484 2.56-2.978 5.112-4.437 7.686-.25.441-.528.583-1.016.57-1.274-.033-2.549-.011-3.92-.011.15-.25.242-.415.345-.575 2.235-3.496 4.465-6.996 6.718-10.48.258-.399.234-.665-.015-1.05-2.272-3.515-4.522-7.044-6.778-10.57-.076-.118-.14-.245-.265-.465h1.013c1.03 0 2.059.018 3.087-.01.381-.01.573.129.756.45 1.496 2.614 3.012 5.218 4.522 7.824.081.14.165.277.301.505.146-.238.25-.4.346-.567 1.492-2.575 2.992-5.146 4.465-7.731.209-.367.437-.49.85-.482z"/>
</svg>
