<svg xmlns="http://www.w3.org/2000/svg" xmlns:xlink="http://www.w3.org/1999/xlink" width="54" height="54" viewBox="0 0 54 54">
    <defs>
        <rect id="b" width="328" height="706" x="23" y="39" rx="31"/>
        <filter id="a" width="140.9%" height="119%" x="-20.4%" y="-8.8%" filterUnits="objectBoundingBox">
            <feMorphology in="SourceAlpha" operator="dilate" radius="3.5" result="shadowSpreadOuter1"/>
            <feOffset dy="5" in="shadowSpreadOuter1" result="shadowOffsetOuter1"/>
            <feGaussianBlur in="shadowOffsetOuter1" result="shadowBlurOuter1" stdDeviation="18"/>
            <feColorMatrix in="shadowBlurOuter1" values="0 0 0 0 0 0 0 0 0 0 0 0 0 0 0 0 0 0 0.0959079983 0"/>
        </filter>
        <rect id="d" width="375" height="706" rx="12"/>
        <filter id="c" width="133.3%" height="117.7%" x="-16.7%" y="-7.7%" filterUnits="objectBoundingBox">
            <feOffset dy="8" in="SourceAlpha" result="shadowOffsetOuter1"/>
            <feGaussianBlur in="shadowOffsetOuter1" result="shadowBlurOuter1" stdDeviation="19.5"/>
            <feColorMatrix in="shadowBlurOuter1" values="0 0 0 0 0 0 0 0 0 0 0 0 0 0 0 0 0 0 0.0959079983 0"/>
        </filter>
        <rect id="e" width="335" height="364" rx="20"/>
        <filter id="f" width="137.3%" height="134.3%" x="-18.7%" y="-15%" filterUnits="objectBoundingBox">
            <feOffset dy="8" in="SourceAlpha" result="shadowOffsetOuter1"/>
            <feGaussianBlur in="shadowOffsetOuter1" result="shadowBlurOuter1" stdDeviation="19.5"/>
            <feColorMatrix in="shadowBlurOuter1" values="0 0 0 0 0.594226246 0 0 0 0 0.440559098 0 0 0 0 0.675328351 0 0 0 0.146006337 0"/>
        </filter>
        <path id="g" d="M.082.01h33.14v26.235H.081z"/>
    </defs>
    <g fill="none" fill-rule="evenodd">
        <use fill="#000" filter="url(#a)" opacity=".657" transform="translate(-45 -351)" xlink:href="#b"/>
        <g transform="translate(-45 -351)">
            <use fill="#000" filter="url(#c)" xlink:href="#d"/>
            <use fill="#FFF" xlink:href="#d"/>
        </g>
        <g transform="translate(-25 -193)">
            <use fill="#000" filter="url(#f)" xlink:href="#e"/>
            <use fill="#FFF" xlink:href="#e"/>
        </g>
        <g>
            <rect width="54" height="54" fill="#FFF" rx="4"/>
            <g transform="translate(10.055 5.076)">
                <mask id="h" fill="#fff">
                    <use xlink:href="#g"/>
                </mask>
                <path fill="#030303" d="M17.947.01c.52.194 1.076.199 1.611.321 5.562 1.27 9.874 5.885 10.747 11.498.218 1.403.117 2.811.155 4.218.029 1.103-.104 2.213.151 3.308.29 1.238.88 2.26 1.973 2.964.49.315.71.795.616 1.372-.095.571-.438.969-1.008 1.115-1.862.476-3.725.947-5.592 1.401-.724.176-1.42-.279-1.622-1.008a1.34 1.34 0 0 1 .941-1.651c1.035-.29 2.083-.536 3.163-.81-.29-.552-.606-1.076-.813-1.655a9.842 9.842 0 0 1-.577-3.204c-.025-1.796.086-3.594-.073-5.388-.411-4.635-3.82-8.504-8.38-9.44-3.416-.702-6.622-.176-9.433 1.968-2.815 2.148-4.101 5.097-4.19 8.593-.035 1.394-.007 2.79-.006 4.184.002 1.703-.4 3.296-1.296 4.754-.029.046-.051.097-.098.187.992.25 1.957.497 2.925.735.893.22 1.387.908 1.2 1.688-.197.816-.931 1.219-1.846.994-1.768-.434-3.535-.876-5.302-1.318C.61 24.69.224 24.32.112 23.732c-.11-.57.086-1.067.577-1.388 1.547-1.01 2.108-2.521 2.152-4.272.036-1.45.004-2.904.008-4.356C2.867 7.314 7.785 1.43 14.085.256c.368-.068.764-.035 1.101-.246h2.76z" mask="url(#h)"/>
            </g>
            <path fill="#A924F6" d="M44.639 47.61H8.779c-.006-1.825-.019-3.65-.014-5.475.008-2.67 1.73-4.77 4.343-5.305 1.939-.397 3.88-.782 5.818-1.18.253-.052.418 0 .592.208 2.04 2.415 4.088 4.823 6.14 7.228.764.897 1.651.884 2.39-.02 1.945-2.38 3.89-4.762 5.831-7.147.164-.201.31-.335.61-.272 1.966.408 3.938.784 5.903 1.198 2.423.51 4.157 2.492 4.24 4.945.064 1.938.009 3.88.007 5.82"/>
            <path fill="#030303" d="M44.639 47.61c.002-1.94.057-3.882-.008-5.82-.082-2.453-1.816-4.435-4.24-4.945-1.964-.414-3.936-.79-5.902-1.198-.3-.063-.446.07-.61.272-1.94 2.385-3.886 4.766-5.831 7.147-.739.904-1.626.917-2.39.02-2.052-2.405-4.1-4.813-6.14-7.228-.174-.207-.339-.26-.592-.208-1.938.398-3.88.783-5.818 1.18-2.612.534-4.335 2.635-4.343 5.305-.005 1.825.008 3.65.013 5.475-.126.841-.614 1.342-1.341 1.378a1.383 1.383 0 0 1-1.394-1.059c-.04-.165-.04-.342-.04-.513-.003-1.74-.005-3.478-.001-5.218.008-3.78 3.012-7.4 6.724-8.121 2.225-.433 4.45-.87 6.668-1.33.676-.141 1.178.072 1.602.572l5.516 6.511c.1.118.206.232.318.359 1.854-2.27 3.7-4.508 5.52-6.77.512-.637 1.094-.819 1.887-.648 2.243.484 4.505.88 6.743 1.388 3.631.823 6.425 4.37 6.433 8.083.004 1.725.001 3.45 0 5.175 0 .909-.508 1.518-1.306 1.57-.762.05-1.35-.502-1.468-1.378"/>
            <path fill="#030303" d="M33.624 18.172c-.189.07-.308.113-.426.158-2.131.814-4.286 1.563-6.54 1.953-2.167.375-4.356.236-6.538.128-.235-.011-.325.005-.32.272.018.89-.02 1.784.016 2.673.067 1.676.603 3.187 1.766 4.42 1.677 1.776 3.774 2.367 6.155 2.082 3.068-.368 5.453-2.725 5.788-5.77.214-1.948.024-3.906.099-5.916m2.749 2.774c-.03 1.405.077 2.812-.253 4.205-1.03 4.359-5.246 7.643-9.719 7.54-3.987-.09-7.853-3.17-9.002-7.176a8.912 8.912 0 0 1-.356-2.507c.006-1.309.001-2.617.002-3.925 0-1.107.718-1.689 1.817-1.567 2.418.269 4.852.43 7.265.054 2.1-.327 4.13-.995 6.078-1.837 1.714-.74 3.817.699 4.117 2.2.12.596.029 1.203.048 1.806.013.402.002.805.003 1.207"/>
        </g>
    </g>
</svg>
