<svg xmlns="http://www.w3.org/2000/svg" xmlns:xlink="http://www.w3.org/1999/xlink" width="54" height="54" viewBox="0 0 54 54">
    <defs>
        <rect id="b" width="328" height="706" x="23" y="39" rx="31"/>
        <filter id="a" width="140.9%" height="119%" x="-20.4%" y="-8.8%" filterUnits="objectBoundingBox">
            <feMorphology in="SourceAlpha" operator="dilate" radius="3.5" result="shadowSpreadOuter1"/>
            <feOffset dy="5" in="shadowSpreadOuter1" result="shadowOffsetOuter1"/>
            <feGaussianBlur in="shadowOffsetOuter1" result="shadowBlurOuter1" stdDeviation="18"/>
            <feColorMatrix in="shadowBlurOuter1" values="0 0 0 0 0 0 0 0 0 0 0 0 0 0 0 0 0 0 0.0959079983 0"/>
        </filter>
        <rect id="d" width="375" height="706" rx="12"/>
        <filter id="c" width="133.3%" height="117.7%" x="-16.7%" y="-7.7%" filterUnits="objectBoundingBox">
            <feOffset dy="8" in="SourceAlpha" result="shadowOffsetOuter1"/>
            <feGaussianBlur in="shadowOffsetOuter1" result="shadowBlurOuter1" stdDeviation="19.5"/>
            <feColorMatrix in="shadowBlurOuter1" values="0 0 0 0 0 0 0 0 0 0 0 0 0 0 0 0 0 0 0.0959079983 0"/>
        </filter>
        <rect id="e" width="335" height="364" rx="20"/>
        <filter id="f" width="137.3%" height="134.3%" x="-18.7%" y="-15%" filterUnits="objectBoundingBox">
            <feOffset dy="8" in="SourceAlpha" result="shadowOffsetOuter1"/>
            <feGaussianBlur in="shadowOffsetOuter1" result="shadowBlurOuter1" stdDeviation="19.5"/>
            <feColorMatrix in="shadowBlurOuter1" values="0 0 0 0 0.594226246 0 0 0 0 0.440559098 0 0 0 0 0.675328351 0 0 0 0.146006337 0"/>
        </filter>
        <path id="g" d="M0 .068h43.845v43.846H0z"/>
        <path id="i" d="M.008.07h25.946v20.21H.008z"/>
    </defs>
    <g fill="none" fill-rule="evenodd">
        <use fill="#000" filter="url(#a)" opacity=".657" transform="translate(-45 -429)" xlink:href="#b"/>
        <g transform="translate(-45 -429)">
            <use fill="#000" filter="url(#c)" xlink:href="#d"/>
            <use fill="#FFF" xlink:href="#d"/>
        </g>
        <g transform="translate(-25 -271)">
            <use fill="#000" filter="url(#f)" xlink:href="#e"/>
            <use fill="#FFF" xlink:href="#e"/>
        </g>
        <g>
            <rect width="54" height="54" fill="#FFF" rx="4"/>
            <g transform="translate(5 5.018)">
                <mask id="h" fill="#fff">
                    <use xlink:href="#g"/>
                </mask>
                <path fill="#FDFDFD" d="M.008 32.007c0-10.52.002-21.04-.006-31.56 0-.29.037-.38.363-.38 5.531.014 11.062.01 16.593.01-.017.067-.068.08-.128.083-2.903.137-5.483 1.18-7.86 2.797-.24.162-.455.34-.59.602-.376.728-.073 1.544.729 1.909 2.33 1.057 4.667 2.102 6.996 3.162 1.362.62 2.27 1.61 2.435 3.152.1.924-.166 1.774-.62 2.572-.206.361-.345.743-.2 1.161.206.594.618.957 1.257.993.664.038 1.081-.331 1.382-.89 1.83-3.395.291-7.955-3.224-9.54-.842-.379-1.687-.753-2.53-1.132-.648-.292-1.294-.59-2.011-.917 1.543-.713 3.076-1.112 4.69-1.121 3.633-.02 6.73 1.352 9.327 3.818 2.275 2.16 4.427 4.45 6.685 6.63.68.657 1.017 1.294.982 2.275-.06 1.703 1.804 3.639 3.503 3.581 1.112-.037 1.85.35 2.51 1.15.196.237.182.331-.02.53-1.33 1.313-2.648 2.64-3.97 3.96-.677.678-.646.642-1.375.01-.532-.461-.753-.96-.686-1.66.093-.98-.31-1.814-.942-2.533-.82-.931-1.823-1.495-3.11-1.415-.546.033-1.034-.08-1.546-.324-1.766-.84-3.466-.631-5.02.548-.71.538-.8 1.423-.278 2.028.541.628 1.361.65 2.044.057.62-.54 1.783-.54 2.398.017a1.51 1.51 0 0 0 1.086.414c.57-.009 1.141-.009 1.712 0 .633.01.913.289.924.92.01.556.016 1.113-.002 1.668-.015.49.157.88.505 1.22.835.82 1.656 1.653 2.484 2.48.763.762 1.49.76 2.257-.007 1.968-1.966 3.935-3.934 5.902-5.902.419-.419.863-.816 1.183-1.323 0 7.505-.002 15.01.008 22.514 0 .293-.057.35-.35.35-14.381-.009-28.763-.009-43.144 0-.293 0-.352-.057-.351-.35.014-3.139.008-6.278.008-9.416.133.044.084.166.1.254.316 1.722 1 3.269 2.238 4.526 1.96 1.992 4.382 2.717 7.107 2.372 2.62-.331 4.738-1.561 6.167-3.84a268.377 268.377 0 0 0 2.632-4.295c.178-.296.277-.317.53-.063 2.593 2.611 5.212 5.198 7.796 7.818 1.41 1.43 3.084 1.707 4.956 1.303 1.138-.246 1.906-1.027 2.679-1.817 1.7-1.738 1.715-4.972-.002-6.69C26.84 26.34 19.463 18.967 12.092 11.59a2.366 2.366 0 0 0-.891-.563c-2.752-1-5.5-2.01-8.249-3.018-.268-.098-.54-.166-.83-.11-.906.17-1.364 1.007-1.033 1.92 1.018 2.807 2.042 5.61 3.063 8.416.099.273.251.505.458.71 1.084 1.076 2.157 2.161 3.244 3.233.187.184.24.283-.003.48-1.478 1.188-2.926 2.414-4.414 3.59-1.64 1.297-2.676 2.96-3.195 4.97-.068.265-.033.564-.234.79" mask="url(#h)"/>
            </g>
            <path fill="#020202" d="M9.634 16.57c.687 1.876 1.34 3.671 2.002 5.463.091.25.208.326.444.084 1.005-1.028 2.029-2.038 3.045-3.055.304-.305.298-.372-.117-.526-1.756-.649-3.516-1.287-5.374-1.966zM35.13 44.889a1.979 1.979 0 0 0 1.324-.587c.297-.288.591-.578.877-.876.82-.855.83-1.836.011-2.686-.652-.676-1.332-1.325-1.986-2-.17-.175-.263-.17-.433.002a306.232 306.232 0 0 1-3.11 3.111c-.163.161-.2.253-.014.433.676.652 1.33 1.326 1.999 1.987.365.362.799.586 1.332.616zm-1.94-8.292c-.09-.095-.163-.178-.241-.257-5.122-5.122-10.246-10.244-15.363-15.371-.193-.194-.297-.212-.498-.006-.987 1.009-1.983 2.01-2.996 2.993-.252.244-.264.367-.006.623 2.15 2.126 4.282 4.269 6.42 6.406 2.964 2.965 5.931 5.927 8.889 8.899.207.208.316.225.53.006.995-1.02 2.01-2.022 3.018-3.031.08-.079.153-.162.247-.262zm-25.441 1.09c.006 2.735 1.031 4.403 3.13 5.51 2.674 1.41 5.71.596 7.302-1.97 1.05-1.693 2.08-3.398 3.129-5.09.133-.215.152-.338-.047-.536a831.69 831.69 0 0 1-5.958-5.957c-.217-.22-.331-.186-.54-.013a696.423 696.423 0 0 1-4.896 4.008c-1.423 1.153-2.098 2.653-2.12 4.048zm-2.74-.662c.2-.225.165-.524.233-.788.52-2.01 1.555-3.674 3.196-4.971 1.487-1.176 2.935-2.402 4.413-3.59.244-.197.19-.296.003-.48-1.087-1.072-2.16-2.157-3.244-3.233a1.898 1.898 0 0 1-.458-.71c-1.02-2.805-2.045-5.61-3.063-8.416-.33-.913.127-1.75 1.033-1.92.29-.056.562.012.83.11 2.75 1.008 5.497 2.017 8.249 3.018.343.125.632.304.891.563 7.371 7.377 14.748 14.749 22.119 22.126 1.717 1.718 1.702 4.952.002 6.69-.773.79-1.541 1.571-2.679 1.817-1.872.404-3.546.126-4.956-1.303-2.584-2.62-5.203-5.207-7.797-7.818-.252-.254-.35-.233-.529.063-.865 1.439-1.74 2.873-2.632 4.295-1.429 2.279-3.548 3.509-6.167 3.84-2.725.345-5.147-.38-7.107-2.372-1.237-1.257-1.922-2.805-2.238-4.526-.016-.088.033-.21-.1-.254v-2.14zM48.837 26.068c-.32.507-.764.904-1.183 1.323-1.967 1.968-3.934 3.936-5.902 5.902-.767.767-1.494.769-2.257.007-.828-.827-1.65-1.66-2.484-2.48-.348-.34-.52-.73-.505-1.22.018-.556.012-1.112.002-1.669-.011-.63-.29-.908-.924-.919a52.84 52.84 0 0 0-1.712 0 1.51 1.51 0 0 1-1.086-.414c-.615-.557-1.778-.556-2.398-.017-.683.594-1.503.571-2.044-.057-.522-.605-.431-1.49.279-2.028 1.553-1.18 3.253-1.389 5.019-.548.512.245 1 .357 1.546.324 1.287-.08 2.29.484 3.11 1.415.633.719 1.035 1.553.942 2.532-.067.7.154 1.2.686 1.661.73.632.698.668 1.375-.01 1.322-1.32 2.64-2.647 3.97-3.96.202-.2.216-.293.02-.53-.66-.8-1.398-1.187-2.51-1.15-1.699.058-3.563-1.878-3.503-3.581.035-.981-.302-1.618-.982-2.275-2.258-2.18-4.41-4.47-6.685-6.63-2.596-2.466-5.694-3.839-9.327-3.818-1.614.009-3.147.408-4.69 1.121.717.327 1.363.625 2.011.917.843.38 1.688.753 2.53 1.133 3.515 1.584 5.054 6.144 3.224 9.539-.3.559-.718.928-1.382.89-.64-.036-1.05-.4-1.257-.993-.145-.418-.006-.8.2-1.16.454-.8.72-1.649.62-2.573-.165-1.542-1.073-2.532-2.435-3.152-2.33-1.06-4.666-2.105-6.996-3.163-.802-.364-1.105-1.18-.73-1.908.136-.263.351-.44.59-.602 2.378-1.617 4.958-2.66 7.861-2.797.06-.003.11-.016.128-.083h.942c.05.137.167.076.255.081 3.909.239 7.305 1.759 10.133 4.392 2.845 2.65 5.522 5.48 8.274 8.23.287.288.43.628.428 1.034-.003.599-.01 1.197.002 1.796.012.608.291.887.897.9.584.012 1.169.013 1.753 0 .459-.01.83.163 1.145.48.754.758 1.5 1.522 2.262 2.272.31.306.602.62.788 1.018v.77z"/>
            <g transform="translate(22.891 5.018)">
                <mask id="j" fill="#fff">
                    <use xlink:href="#i"/>
                </mask>
                <path fill="#FDFDFD" d="M25.946 20.28c-.186-.399-.478-.712-.788-1.018-.761-.75-1.509-1.514-2.262-2.272-.315-.317-.686-.49-1.145-.48-.584.013-1.169.012-1.753 0-.606-.013-.885-.292-.897-.9-.011-.599-.005-1.197-.002-1.796a1.392 1.392 0 0 0-.428-1.034c-2.752-2.75-5.43-5.58-8.274-8.23C7.569 1.917 4.173.397.264.158.176.153.058.214.008.078c8.532 0 17.064.001 25.596-.009.293 0 .351.058.35.35-.01 6.62-.008 13.24-.008 19.86" mask="url(#j)"/>
            </g>
            <path fill="#FDFDFD" d="M7.749 37.687c.022-1.395.697-2.895 2.12-4.048a702.817 702.817 0 0 0 4.895-4.008c.21-.173.324-.207.541.013a831.712 831.712 0 0 0 5.958 5.957c.2.198.18.32.047.536-1.05 1.692-2.08 3.397-3.129 5.09-1.592 2.566-4.628 3.38-7.303 1.97-2.097-1.107-3.123-2.775-3.13-5.51"/>
            <path fill="#A924F6" d="M33.19 36.597c-.094.1-.168.183-.246.262-1.008 1.009-2.024 2.01-3.02 3.03-.213.22-.322.203-.53-.005-2.957-2.972-5.924-5.934-8.888-8.899-2.138-2.137-4.27-4.28-6.42-6.406-.258-.256-.246-.379.006-.623a158.806 158.806 0 0 0 2.996-2.993c.2-.206.305-.188.498.006 5.117 5.127 10.24 10.249 15.363 15.371.078.079.152.162.241.257"/>
            <path fill="#FDFDFD" d="M35.13 44.889c-.533-.03-.967-.254-1.332-.616-.668-.661-1.323-1.335-2-1.987-.185-.18-.148-.272.015-.433a307.114 307.114 0 0 0 3.11-3.111c.17-.172.263-.177.433-.002.654.675 1.334 1.324 1.986 2 .82.85.81 1.831-.011 2.686-.286.298-.58.588-.876.876a1.98 1.98 0 0 1-1.325.587M9.634 16.57c1.858.679 3.618 1.317 5.374 1.966.415.154.421.221.117.526-1.016 1.017-2.04 2.027-3.045 3.055-.236.242-.353.165-.444-.084-.661-1.792-1.315-3.587-2.002-5.463"/>
        </g>
    </g>
</svg>
