<svg id="banner" xmlns="http://www.w3.org/2000/svg" xmlns:xlink="http://www.w3.org/1999/xlink" width="375" height="328" viewBox="0 0 375 328">
  <defs>
    <clipPath id="clip-path">
      <path id="Mask" d="M12,0H363a12,12,0,0,1,12,12V328a0,0,0,0,1,0,0H0a0,0,0,0,1,0,0V12A12,12,0,0,1,12,0Z" fill="#8300d8"/>
    </clipPath>
  </defs>
  <path id="Mask-2" data-name="Mask" d="M12,0H363a12,12,0,0,1,12,12V328a0,0,0,0,1,0,0H0a0,0,0,0,1,0,0V12A12,12,0,0,1,12,0Z" fill="#8300d8"/>
  <g id="banner-2" data-name="banner" clip-path="url(#clip-path)">
    <g id="Group_6" data-name="Group 6" transform="translate(90 -41)">
      <path id="Fill_1" data-name="Fill 1" d="M175.18,352.9h-.02c-.725,0-1.438,0-2.18-.014A172.526,172.526,0,0,1,105.6,338.261a175.853,175.853,0,0,1-29.418-16.5,178,178,0,0,1-62.707-77.6,175.925,175.925,0,0,1,.491-136.2,179.388,179.388,0,0,1,63.346-77.65A174.662,174.662,0,0,1,106.8,13.962,168.527,168.527,0,0,1,173.937,0c.424,0,.851,0,1.271,0A172.031,172.031,0,0,1,243,14.444a175.731,175.731,0,0,1,29.611,16.542A178.374,178.374,0,0,1,335.685,109.1a175.291,175.291,0,0,1-.759,136.344,179.773,179.773,0,0,1-63.433,77.276,175.1,175.1,0,0,1-29.437,16.274A170.109,170.109,0,0,1,209.705,349.3,167.753,167.753,0,0,1,175.18,352.9Zm-.81-264.834c-66.815,0-121.348,55.157-121.562,122.964-.107,33.6,12.537,64.847,35.605,87.99,22.776,22.851,53.421,35.436,86.289,35.438h.483c67.834-.252,120.921-54.349,120.856-123.157-.064-67.808-54.532-123.09-121.418-123.233Z" transform="translate(0.997 0.101)" fill="#7605bf"/>
      <path id="Fill_4" data-name="Fill 4" d="M.005,77.875C.481,33.668,34.9-.3,78.882,0,121.7.3,155.307,35.394,155.991,79.752c.677,44.122-35.361,78.611-79.04,78.245C33.153,157.628-.478,122.612.005,77.875" transform="translate(98 159)" fill="#b332ff" opacity="0.708"/>
    </g>
  </g>
</svg>
