<svg xmlns="http://www.w3.org/2000/svg" width="16" height="10" viewBox="0 0 16 10">
    <path fill="#A924F6" fill-rule="evenodd" d="M2.482.02C3.8.084 5.123.034 6.598.034c-.845.807-1.49 1.567-2.66 1.363-.567-.1-1.163-.016-1.745-.017-.553 0-.853.246-.85.848.01 1.728.007 3.456.002 5.185-.001.563.28.82.807.825.597.005 1.194.001 1.82.001v1.257C1.5 9.727.74 9.704 0 8.015v-6.41C.44.437 1.261-.04 2.482.02zm8.22-.02c.874.048 1.773-.009 2.622.174.82.178 1.25.872 1.323 1.745.021.253.003.509.143.656L16 3.655v2.309l-1.209 1.083-.112-.106c-.014.297-.013.596-.045.891-.097.892-.806 1.623-1.671 1.73-.206.024-.416.024-.624.025-1.37.002-2.74 0-4.132-.067.68-.603 1.18-1.456 2.299-1.297.653.093 1.33.017 1.996.016.565 0 .842-.295.842-.87V2.243c0-.583-.292-.861-.851-.862h-1.79V0zM9.09.098c.03.253.13.523.075.755-.252 1.07-.547 2.13-.85 3.277h3.952c-.297.274-.468.443-.65.6-1.742 1.489-3.479 2.983-5.234 4.454-.215.18-.532.231-.802.342-.018-.311-.108-.64-.04-.931.233-1.01.52-2.006.819-3.123H2.572l-.148-.207c.114-.045.25-.063.34-.14L6.51 1.938c.625-.53 1.25-1.06 1.878-1.587.18-.151.466-.171.703-.252z"/>
</svg>
