<svg xmlns="http://www.w3.org/2000/svg" xmlns:xlink="http://www.w3.org/1999/xlink" width="44" height="44" viewBox="0 0 44 44">
    <defs>
        <path id="a" d="M0 0h44v44H0z"/>
    </defs>
    <g fill="none" fill-rule="evenodd">
        <g>
            <mask id="b" fill="#fff">
                <use xlink:href="#a"/>
            </mask>
            <path fill="#020303" d="M8.333 35.666c.095.104.184.216.287.312 4.67 4.303 10.184 5.93 16.422 5.023 5.213-.759 9.416-3.312 12.546-7.56 2.313-3.138 3.464-6.7 3.646-10.582.052-1.1.042-2.202-.157-3.293-.004-.114.003-.23-.014-.342-.765-5.107-3.097-9.334-7.203-12.491-4.216-3.242-9.029-4.434-14.29-3.825-4.29.497-8.015 2.245-11.102 5.269-5.786 5.67-7.37 14.601-3.945 22.042.941 2.043 2.179 3.884 3.81 5.447M20.195 0h3.438c.412.164.853.129 1.28.191 4.026.588 7.635 2.15 10.778 4.724 4.424 3.623 7.159 8.246 8.073 13.918.077.483.044.984.236 1.448v3.524c-.135.046-.082.167-.092.255-.209 1.942-.602 3.845-1.36 5.648-3.29 7.825-9.074 12.567-17.466 14.068-.482.087-.983.043-1.45.224h-3.437c-.35-.174-.737-.138-1.108-.192-4.026-.586-7.634-2.15-10.778-4.723C3.885 35.463 1.15 30.839.236 25.166.163 24.712.2 24.237 0 23.805v-3.61c.173-.35.138-.737.192-1.108.587-4.026 2.149-7.634 4.723-10.778C8.538 3.886 13.161 1.15 18.834.236 19.288.163 19.763.2 20.195 0" mask="url(#b)"/>
        </g>
        <path fill="#A924F6" d="M8.333 35.666c3.087-3.088 6.176-6.173 9.255-9.268.221-.221.332-.245.566-.008 1.607 1.63 3.243 3.234 4.843 4.872.318.325.47.28.761-.016 2.509-2.532 5.038-5.043 7.548-7.574.248-.249.374-.274.626-.007.687.73 1.42 1.415 2.11 2.14.247.259.38.297.661.017 2.007-2.002 4.035-3.982 6.057-5.968.101-.1.21-.192.317-.287.199 1.09.209 2.193.157 3.292-.182 3.881-1.333 7.444-3.646 10.583-3.13 4.247-7.333 6.8-12.546 7.559-6.238.907-11.752-.72-16.422-5.023-.103-.096-.192-.208-.287-.312"/>
        <path fill="#020303" d="M31.01 15.125c-.697 0-1.35.002-2.002 0-.898-.004-1.522-.583-1.51-1.397.013-.796.634-1.354 1.512-1.354 1.776-.001 3.552-.002 5.328.001.857.002 1.41.56 1.412 1.423.003 1.776.003 3.552.001 5.328 0 .874-.568 1.494-1.365 1.5-.798.007-1.38-.612-1.386-1.478-.004-.644-.003-1.288-.005-1.933 0-.013-.005-.027-.014-.07-.16.047-.241.187-.343.288-2.706 2.702-5.41 5.407-8.114 8.11-.791.792-1.51.79-2.296.004-1.346-1.348-2.705-2.683-4.033-4.049-.282-.29-.407-.23-.654.02a2999.09 2999.09 0 0 1-8.23 8.237c-.773.773-1.891.615-2.316-.316-.256-.56-.128-1.123.383-1.634 1.872-1.875 3.747-3.748 5.62-5.622 1.266-1.266 2.531-2.533 3.799-3.797.701-.7 1.482-.692 2.18.01 1.384 1.39 2.773 2.777 4.153 4.171.164.166.257.24.467.029 2.432-2.45 4.876-4.888 7.316-7.33.026-.025.043-.06.097-.14"/>
    </g>
</svg>
