<svg xmlns="http://www.w3.org/2000/svg" xmlns:xlink="http://www.w3.org/1999/xlink" width="44" height="44" viewBox="0 0 44 44">
    <defs>
        <path id="a" d="M0 0h44v44H0z"/>
    </defs>
    <g fill="none" fill-rule="evenodd">
        <g>
            <mask id="b" fill="#fff">
                <use xlink:href="#a"/>
            </mask>
            <path fill="#030303" d="M37.417 34.807c-.04-.072-.078-.148-.122-.222l-1.32-2.207c-.32-.533-.302-1.054.04-1.571a14.321 14.321 0 0 0 2.083-4.9c.139-.64.536-1.02 1.177-1.154.545-.113 1.087-.246 1.635-.346.253-.046.35-.133.346-.411-.017-1.332-.017-2.664.002-3.996.004-.282-.098-.364-.35-.41-.505-.091-1.001-.239-1.508-.32-.743-.12-1.147-.543-1.333-1.26-.447-1.724-1.085-3.37-2.077-4.863-.334-.502-.322-1.019-.011-1.534.442-.734.873-1.476 1.326-2.204.12-.194.111-.31-.051-.469-.737-.721-1.47-1.447-2.185-2.19-.185-.192-.314-.155-.505-.038-.718.441-1.446.867-2.167 1.304-.53.32-1.053.321-1.572-.02a14.488 14.488 0 0 0-4.94-2.1c-.624-.136-.993-.534-1.128-1.152-.122-.558-.247-1.116-.354-1.678-.044-.23-.124-.327-.386-.323a163.98 163.98 0 0 1-4.039 0c-.266-.004-.34.103-.383.329-.098.505-.24 1.002-.32 1.509-.12.76-.552 1.17-1.288 1.36-1.71.44-3.342 1.074-4.822 2.06-.5.332-1.017.34-1.535.03-.735-.44-1.474-.875-2.203-1.326-.2-.125-.324-.132-.502.053a79.983 79.983 0 0 1-2.157 2.156c-.201.194-.18.329-.05.538.436.704.852 1.421 1.285 2.128.334.544.335 1.075-.016 1.61-.992 1.506-1.702 3.132-2.083 4.899-.142.657-.557 1.038-1.218 1.166-.547.106-1.09.237-1.636.343-.212.041-.31.114-.307.36.014 1.36.014 2.72 0 4.081-.002.241.087.319.303.36.519.1 1.03.243 1.55.329.74.122 1.15.539 1.337 1.259.445 1.724 1.083 3.37 2.076 4.863.334.502.329 1.02.012 1.533-.42.68-.838 1.364-1.273 2.036-.137.21-.17.344.038.543a90.665 90.665 0 0 1 2.158 2.156c.163.167.277.166.467.048.728-.453 1.47-.882 2.203-1.328.55-.335 1.11-.304 1.613.042 1.48 1.02 3.11 1.68 4.85 2.082.666.154 1.042.55 1.173 1.205.118.588.243 1.176.356 1.765.042.22.112.33.381.326a160.36 160.36 0 0 1 3.996-.003c.263.003.376-.068.423-.333.093-.52.242-1.03.33-1.55.122-.725.54-1.12 1.24-1.302 1.68-.434 3.299-1.036 4.752-2.007.63-.421 1.213-.389 1.83.002.677.427 1.372.825 2.05 1.248.175.11.286.11.435-.043.732-.746 1.476-1.48 2.213-2.222.066-.066.162-.12.161-.241M18.219 0h7.562c.659.275 1 .771 1.1 1.478.073.522.233 1.03.319 1.551.046.279.17.411.44.488 1.308.373 2.548.916 3.728 1.592.2.114.338.125.538 0 .775-.484 1.561-.95 2.347-1.415.702-.417 1.323-.33 1.9.25 1.3 1.307 2.605 2.614 3.907 3.921.587.589.663 1.181.238 1.895-.468.784-.938 1.568-1.412 2.349-.093.153-.143.277-.035.463.702 1.216 1.216 2.514 1.623 3.855.06.2.148.304.37.343.561.1 1.112.263 1.676.349.7.107 1.207.436 1.48 1.1v7.648c-.357.683-.96.95-1.69 1.05-.464.063-.916.22-1.38.295-.251.04-.368.147-.435.385a16.664 16.664 0 0 1-1.604 3.769c-.13.227-.098.374.025.574.465.753.916 1.515 1.368 2.275.443.743.374 1.318-.235 1.929a2212.1 2212.1 0 0 1-3.915 3.914c-.595.594-1.174.667-1.893.24-.785-.466-1.568-.936-2.348-1.411-.157-.096-.283-.14-.465-.035-1.218.699-2.514 1.216-3.855 1.622-.2.06-.304.148-.344.37-.1.561-.26 1.113-.348 1.676-.109.698-.435 1.208-1.1 1.48h-7.648c-.682-.358-.953-.956-1.046-1.69-.067-.523-.228-1.032-.315-1.553-.04-.238-.145-.324-.369-.39a17.302 17.302 0 0 1-3.767-1.612c-.222-.13-.377-.103-.578.02-.765.472-1.538.933-2.31 1.393-.69.41-1.298.337-1.865-.228a1567.165 1567.165 0 0 1-3.946-3.945c-.6-.602-.663-1.204-.21-1.931.452-.728.909-1.453 1.362-2.18.078-.127.188-.227.079-.418-.72-1.255-1.254-2.59-1.667-3.975-.046-.153-.14-.222-.304-.254-.504-.097-1-.249-1.507-.32-.73-.102-1.333-.367-1.69-1.05v-7.734c.357-.683.96-.95 1.69-1.051.465-.065.917-.22 1.381-.294.253-.04.367-.15.434-.387a16.793 16.793 0 0 1 1.605-3.77c.114-.2.122-.337-.003-.537-.477-.762-.934-1.537-1.393-2.31-.444-.75-.373-1.316.24-1.93C5.236 6.569 6.521 5.285 7.807 4c.683-.683 1.283-.739 2.105-.225.738.462 1.49.902 2.23 1.36.15.094.267.108.427.016 1.217-.701 2.514-1.216 3.856-1.623.2-.06.305-.147.344-.37.1-.561.26-1.113.349-1.676.109-.699.435-1.209 1.1-1.481" mask="url(#b)"/>
        </g>
        <path fill="#030303" d="M25.825 30.897c1.763-.753 3.118-1.837 4.179-3.397-1.01 0-1.939.003-2.868-.002-.145 0-.227.026-.265.193a19.009 19.009 0 0 1-1.046 3.206m-7.661-.005c-.166-.428-.306-.768-.428-1.114-.123-.35-.236-.704-.341-1.06-.118-.394-.103-.96-.364-1.145-.29-.205-.824-.069-1.252-.072-.575-.005-1.15-.001-1.788-.001 1.08 1.563 2.426 2.65 4.173 3.392m7.657-17.788c.463 1.076.784 2.08 1.03 3.11.029.119.002.291.23.29.95-.01 1.901-.004 2.926-.004-1.076-1.562-2.422-2.651-4.186-3.396M13.99 16.5c.976 0 1.874-.016 2.77.009.287.008.362-.118.411-.349.17-.798.422-1.571.71-2.333.082-.218.17-.434.28-.717-1.743.738-3.09 1.825-4.171 3.39m8.013 11h-1.976c-.14 0-.302-.037-.242.21.254 1.043.517 2.083 1.085 3.011.735 1.203 1.518 1.207 2.253.008.57-.927.836-1.966 1.088-3.01.057-.236-.08-.22-.232-.22-.659.003-1.317.002-1.976.001m-.01-11h1.976c.137 0 .305.042.244-.208-.255-1.058-.521-2.113-1.106-3.048-.73-1.17-1.506-1.158-2.231.026-.568.927-.837 1.965-1.088 3.01-.056.234.075.221.23.22.658-.002 1.317 0 1.975 0m-7.335 8.25c.544 0 1.087-.008 1.63.004.238.006.353-.018.323-.319a25.626 25.626 0 0 1-.001-4.88c.024-.254-.043-.312-.287-.31-1.1.012-2.2.01-3.301.002-.196-.002-.305.037-.355.253a10.71 10.71 0 0 0 .004 5.007c.043.183.116.254.316.248.556-.015 1.114-.005 1.671-.005m14.67 0c.559 0 1.117-.008 1.675.004.19.005.276-.047.322-.24.401-1.671.4-3.341.004-5.014-.042-.174-.104-.258-.31-.256-1.131.012-2.262.01-3.393.003-.195-.001-.268.027-.245.26a25.254 25.254 0 0 1 0 4.971c-.025.263.073.277.273.274.558-.007 1.116-.002 1.674-.002m-7.333 0c.773 0 1.546-.01 2.32.005.252.005.338-.058.356-.327a37.408 37.408 0 0 0 0-4.848c-.018-.26-.086-.338-.35-.336-1.545.012-3.091.011-4.637 0-.253 0-.34.06-.357.328a37.377 37.377 0 0 0 0 4.849c.018.258.086.341.35.335.772-.017 1.545-.006 2.318-.006m12.38-2.747c.02 6.521-5.7 12.312-12.143 12.384-6.778.076-12.564-5.677-12.61-12.304-.045-6.59 5.564-12.326 12.144-12.458 6.767-.135 12.617 5.682 12.608 12.378"/>
        <path fill="#A924F6" d="M19.98 27.5h2.024c.659 0 1.317.002 1.976 0h.097c.106.005.18.036.135.22-.252 1.043-.519 2.082-1.088 3.009-.735 1.199-1.518 1.195-2.253-.008-.568-.928-.831-1.968-1.085-3.01-.053-.22.069-.215.195-.212zm7.156-.002c.93.005 1.858.002 2.868.002-1.06 1.56-2.416 2.644-4.179 3.397.465-1.1.802-2.139 1.046-3.206.038-.167.12-.193.265-.193zm-10.105.075c.26.185.246.75.364 1.145.105.356.218.71.341 1.06.122.346.262.686.428 1.114-1.747-.742-3.093-1.83-4.173-3.392.639 0 1.213-.004 1.788 0 .428.004.963-.132 1.252.073zm7.292-8.329c.263-.002.331.077.348.336a37.408 37.408 0 0 1 0 4.848c-.017.269-.103.332-.356.327-.773-.015-1.546-.005-2.319-.005-.773 0-1.546-.01-2.319.006-.263.006-.331-.077-.348-.335a37.393 37.393 0 0 1 0-4.849c.017-.269.103-.329.356-.327 1.546.01 3.092.011 4.638-.001zm-7.999.001c.244-.002.31.056.287.31a25.625 25.625 0 0 0 .001 4.88c.03.301-.085.325-.323.32-.543-.013-1.086-.005-1.63-.005-.557 0-1.115-.01-1.671.005-.2.006-.273-.065-.316-.248a10.711 10.711 0 0 1-.004-5.008c.05-.215.159-.254.355-.252 1.1.007 2.2.01 3.301-.002zm14.695-.001c.207-.002.27.082.31.256a10.656 10.656 0 0 1-.003 5.015c-.046.192-.133.244-.322.24-.558-.013-1.116-.005-1.675-.005-.558 0-1.116-.005-1.674.002-.2.003-.299-.01-.272-.274a25.254 25.254 0 0 0-.001-4.972c-.023-.232.05-.26.245-.26 1.131.007 2.262.01 3.392-.002zM18.163 13.11c-.112.283-.199.499-.281.717-.288.762-.54 1.535-.71 2.333-.049.231-.124.357-.41.349-.897-.025-1.795-.01-2.771-.01 1.081-1.565 2.428-2.65 4.172-3.389zm7.658-.006c1.764.745 3.11 1.834 4.186 3.396-1.025 0-1.976-.006-2.926.003-.228.002-.201-.17-.23-.29a18.704 18.704 0 0 0-1.03-3.109zm-2.713.14c.585.935.85 1.99 1.106 3.048.06.25-.107.207-.244.207h-1.976c-.659 0-1.317 0-1.976.002-.154 0-.285.013-.229-.222.25-1.044.52-2.082 1.088-3.01.725-1.183 1.5-1.194 2.231-.025z"/>
    </g>
</svg>
