<svg xmlns="http://www.w3.org/2000/svg" width="12" height="12" viewBox="0 0 12 12">
    <path fill="#8300D8" fill-rule="evenodd" d="M3.105 4.759c.337.326.35.86.02 1.209-.254.266-.52.52-.778.782-.794.813-.835 2.013-.097 2.841.793.891 2.124.918 3.001.058.26-.254.509-.518.772-.768a.857.857 0 0 1 1.436.411c.07.283.017.553-.185.765-.34.356-.678.717-1.052 1.038-.704.605-1.528.894-2.228.905-2.105-.001-3.71-1.394-3.957-3.264-.157-1.188.186-2.232 1.005-3.111.275-.295.565-.575.853-.858a.856.856 0 0 1 1.21-.008zm4.455-.762c.316.137.516.45.512.746 0 .288-.088.49-.253.655-.81.811-1.618 1.624-2.431 2.43a.854.854 0 0 1-1.219 0 .854.854 0 0 1 .005-1.219c.807-.813 1.618-1.623 2.43-2.432a.852.852 0 0 1 .956-.18zm3.897-2.18c.355.58.55 1.29.543 1.967a3.754 3.754 0 0 1-1.124 2.677c-.255.258-.511.515-.77.77a.855.855 0 0 1-1.228.005c-.336-.334-.335-.868.008-1.22.274-.283.566-.55.83-.842.563-.625.71-1.351.408-2.133-.287-.743-.853-1.18-1.648-1.29-.68-.093-1.259.133-1.743.612-.259.255-.508.52-.773.768a.855.855 0 0 1-1.425-.416c-.066-.267-.032-.533.158-.732.427-.446.833-.918 1.34-1.278a3.777 3.777 0 0 1 5.424 1.111z"/>
</svg>
